# xmcd CD database file
#
# Track frame offsets:
#	150
#	22937
#	36252
#	56052
#	68422
#	84905
#	104595
#	117727
#	138850
#	161052
#	174250
#	185677
#	197105
#	208540
#	226507
#
# Disc length: 3264 seconds
#
# Revision: 0
# Processed by: cddbd v1.5.2PL0 Copyright (c) Steve Scherf et al.
# Submitted via: CDex 1.70beta2
#
DISCID=c50cbe0f
DTITLE=Various Artist - Happy Hardcore Fever 3 - CD2 - DJ Ham Mixes
DYEAR=1996
DGENRE=Hardcore
TTITLE0=DJ Luna-C - 6 Six 6
TTITLE1=Infernus - I Want Your Love
TTITLE2=DJ Vibes and Wishdokta - Motorway Madness
TTITLE3=DNA - Go Insane
TTITLE4=DJ Ham - Here We Go Again
TTITLE5=Davie Forbes - Yee-Haaa!
TTITLE6=Helix - Get It Right
TTITLE7=Slush and Puppie - The Finest
TTITLE8=El Bruto - Rock That Shit
TTITLE9=DJ Ham - Musics Hypnotizing
TTITLE10=DJ Demo - Carousel
TTITLE11=Quicksilver - What Is A Beat
TTITLE12=Garion Fey - Lifetime Annoyance
TTITLE13=D-Jain and Cru-l-t - And I Ran
TTITLE14=Future Primitive - Yellow Dye # 5
EXTD=YEAR: 1996
EXTT0=
EXTT1=
EXTT2=
EXTT3=
EXTT4=
EXTT5=
EXTT6=
EXTT7=
EXTT8=
EXTT9=
EXTT10=
EXTT11=
EXTT12=
EXTT13=
EXTT14=
PLAYORDER=
